<svg xmlns="http://www.w3.org/2000/svg" width="483.51" height="155.194" viewBox="0 0 483.51 155.194">
  <g id="White_on_all_colours" data-name="White on all colours" transform="translate(241.755 77.597)">
    <g id="Group_355" data-name="Group 355" transform="translate(-241.755 -77.597)">
      <g id="Group_348" data-name="Group 348" transform="translate(156.906 18.325)">
        <g id="Group_347" data-name="Group 347">
          <g id="Group_338" data-name="Group 338" transform="translate(0 19.135)">
            <g id="Group_337" data-name="Group 337">
              <path id="Path_1195" data-name="Path 1195" d="M106.444,45.775H81.151a17.17,17.17,0,0,0,1.774,7.767,11.893,11.893,0,0,0,10.92,6.774,15.405,15.405,0,0,0,4.238-.545,13.669,13.669,0,0,0,3.719-1.707,28.079,28.079,0,0,0,3.317-2.485q1.514-1.327,3.931-3.6a4.241,4.241,0,0,1,2.841-.852,4.683,4.683,0,0,1,3.222,1.088,3.9,3.9,0,0,1,1.231,3.079,8.394,8.394,0,0,1-1.374,4.1,16.286,16.286,0,0,1-4.141,4.5,23.624,23.624,0,0,1-6.966,3.575,29.987,29.987,0,0,1-9.638,1.42q-12.458,0-19.373-7.1T67.935,42.507a32.089,32.089,0,0,1,1.707-10.631,23.41,23.41,0,0,1,4.973-8.409,21.574,21.574,0,0,1,8.051-5.377,28.955,28.955,0,0,1,10.61-1.871,25.2,25.2,0,0,1,13,3.2,21.06,21.06,0,0,1,8.121,8.266,21.715,21.715,0,0,1,2.7,10.326q0,4.878-2.795,6.321A17.373,17.373,0,0,1,106.444,45.775ZM81.151,38.433H104.6q-.471-6.631-3.578-9.922a10.7,10.7,0,0,0-8.169-3.291,10.34,10.34,0,0,0-7.934,3.34Q81.811,31.9,81.151,38.433Z" transform="translate(-67.935 -16.219)" fill="#fff"/>
            </g>
          </g>
          <g id="Group_340" data-name="Group 340" transform="translate(62.617)">
            <g id="Group_339" data-name="Group 339">
              <path id="Path_1196" data-name="Path 1196" d="M109.112,16.461V67h28.515a7.537,7.537,0,0,1,5.236,1.658,5.406,5.406,0,0,1,1.822,4.169,5.256,5.256,0,0,1-1.8,4.144,7.706,7.706,0,0,1-5.257,1.587H103.666q-4.594,0-6.608-2.037t-2.012-6.582V16.461q0-4.265,1.917-6.4a6.466,6.466,0,0,1,5.044-2.132,6.716,6.716,0,0,1,5.141,2.109Q109.109,12.153,109.112,16.461Z" transform="translate(-95.046 -7.934)" fill="#fff"/>
            </g>
          </g>
          <g id="Group_342" data-name="Group 342" transform="translate(114.385 19.23)">
            <g id="Group_341" data-name="Group 341">
              <path id="Path_1197" data-name="Path 1197" d="M129.964,24.314l8.43,28.891,7.673-26.857q1.233-4.213,1.825-5.756a7.531,7.531,0,0,1,2.224-2.936,7.946,7.946,0,0,1,9,0,8.03,8.03,0,0,1,2.3,3.03q.662,1.639,1.848,5.661l7.673,26.857,8.525-28.891q.852-3.128,1.374-4.522a5.984,5.984,0,0,1,1.753-2.464,5.268,5.268,0,0,1,3.552-1.067,5.667,5.667,0,0,1,4.026,1.612,5.044,5.044,0,0,1,1.7,3.788,19.779,19.779,0,0,1-1.467,6.017L179.839,58.653q-1.372,3.932-2.129,5.684a8.441,8.441,0,0,1-2.4,3.125,7.984,7.984,0,0,1-9.093-.095,8.852,8.852,0,0,1-2.485-3.6q-.807-2.134-1.753-5.543l-7.389-25.2-7.153,25.2a30.84,30.84,0,0,1-3.079,7.934q-1.656,2.675-5.825,2.677a7.386,7.386,0,0,1-3.624-.827,6.98,6.98,0,0,1-2.487-2.37,17.831,17.831,0,0,1-1.753-3.649c-.5-1.4-.9-2.518-1.183-3.337l-10.47-30.977a21.915,21.915,0,0,1-1.561-6.017,5.172,5.172,0,0,1,1.656-3.742,5.547,5.547,0,0,1,4.074-1.658q3.222,0,4.358,1.825A27.035,27.035,0,0,1,129.964,24.314Z" transform="translate(-117.46 -16.26)" fill="#fff"/>
            </g>
          </g>
          <path id="Path_1198" data-name="Path 1198" d="M188.085,61.6a39.942,39.942,0,0,1-9.068,5.469,25.392,25.392,0,0,1-9.83,1.825,18.615,18.615,0,0,1-8.737-1.965,14.378,14.378,0,0,1-5.8-5.328,13.829,13.829,0,0,1-2.037-7.294,13.052,13.052,0,0,1,3.363-9.047,16.8,16.8,0,0,1,9.236-5.021q1.233-.284,6.111-1.28t8.361-1.825q3.478-.825,7.553-2.012Q187,30,185.175,27.612t-7.557-2.393q-4.926,0-7.412,1.372a12.015,12.015,0,0,0-4.264,4.123,43.969,43.969,0,0,1-2.511,3.624q-.734.877-3.15.875a5.5,5.5,0,0,1-3.767-1.4,4.538,4.538,0,0,1-1.584-3.573,10.935,10.935,0,0,1,2.416-6.631,17.25,17.25,0,0,1,7.532-5.305,33.9,33.9,0,0,1,12.74-2.086q8.526,0,13.405,2.014a12.454,12.454,0,0,1,6.89,6.37q2.013,4.358,2.014,11.557,0,4.549-.023,7.721t-.072,7.058a26.044,26.044,0,0,0,1.208,7.6,23.931,23.931,0,0,1,1.208,5.093,4.76,4.76,0,0,1-1.871,3.622,6.256,6.256,0,0,1-4.238,1.635,5.726,5.726,0,0,1-3.931-1.871A27.756,27.756,0,0,1,188.085,61.6Zm-.852-18.71a64.611,64.611,0,0,1-8.266,2.2q-5.422,1.164-7.506,1.707a10.233,10.233,0,0,0-3.977,2.132,5.459,5.459,0,0,0-1.9,4.428,6.546,6.546,0,0,0,2.227,5,8.226,8.226,0,0,0,5.827,2.063,15.155,15.155,0,0,0,7.081-1.681A11.23,11.23,0,0,0,185.48,54.4q1.753-2.938,1.753-9.664Z" transform="translate(42.958 2.916)" fill="#fff"/>
          <g id="Group_344" data-name="Group 344" transform="translate(252.358 20.366)">
            <g id="Group_343" data-name="Group 343">
              <path id="Path_1199" data-name="Path 1199" d="M217.933,30.441,194.25,56.919h25.339a6.62,6.62,0,0,1,4.642,1.446,4.833,4.833,0,0,1,1.564,3.716,4.55,4.55,0,0,1-1.541,3.555,6.835,6.835,0,0,1-4.665,1.372H184.54q-3.7,0-5.518-1.61a5.646,5.646,0,0,1-.545-7.747q1.278-1.677,5.305-6.178,4.261-4.736,7.744-8.573t6.465-7.176q2.983-3.34,4.947-5.661t3.153-3.977h-19.23a19.326,19.326,0,0,1-6.017-.711q-2.037-.71-2.037-3.742a4.447,4.447,0,0,1,1.541-3.552,6.509,6.509,0,0,1,4.381-1.328h29.7a13.374,13.374,0,0,1,6.322,1.208q2.207,1.213,2.2,4.335a6,6,0,0,1-.425,2.155,7.87,7.87,0,0,1-.947,1.825q-.523.71-1.42,1.728T217.933,30.441Z" transform="translate(-177.198 -16.752)" fill="#fff"/>
            </g>
          </g>
          <g id="Group_346" data-name="Group 346" transform="translate(310.427 0.568)">
            <g id="Group_345" data-name="Group 345" transform="translate(0)">
              <path id="Path_1200" data-name="Path 1200" d="M208.876,20.828a6.806,6.806,0,0,1-4.617-1.658,5.851,5.851,0,0,1-1.919-4.689A5.831,5.831,0,0,1,204.3,9.956a6.618,6.618,0,0,1,4.573-1.776,6.782,6.782,0,0,1,4.451,1.61,5.743,5.743,0,0,1,1.942,4.691,5.9,5.9,0,0,1-1.894,4.663A6.537,6.537,0,0,1,208.876,20.828Zm6.393,13.357V71.557q0,3.884-1.848,5.873a6.121,6.121,0,0,1-4.689,1.989,5.846,5.846,0,0,1-4.619-2.037,8.606,8.606,0,0,1-1.774-5.825V34.563q0-3.835,1.774-5.779a5.981,5.981,0,0,1,4.619-1.942,6.2,6.2,0,0,1,4.689,1.942A7.513,7.513,0,0,1,215.269,34.184Z" transform="translate(-202.34 -8.18)" fill="#fff"/>
            </g>
          </g>
        </g>
      </g>
      <g id="Group_349" data-name="Group 349">
        <path id="Path_1201" data-name="Path 1201" d="M67.559,46.5H43.136a1.363,1.363,0,0,0,0,2.725H67.559a1.363,1.363,0,0,0,0-2.725ZM41.776,68.637" transform="translate(54.712 60.897)" fill="#fff"/>
        <path id="Path_1202" data-name="Path 1202" d="M54.994,0a4.873,4.873,0,0,0-4.663,3.518H10.947a1.362,1.362,0,1,0,0,2.723H50.331A4.872,4.872,0,1,0,54.994,0Zm0,7.037A2.157,2.157,0,1,1,57.151,4.88,2.159,2.159,0,0,1,54.994,7.037Z" transform="translate(12.552)" fill="#fff"/>
        <path id="Path_1203" data-name="Path 1203" d="M28.483,4.5a4.868,4.868,0,0,0-4.661,3.52H5.934a1.362,1.362,0,1,0,0,2.723H23.822A4.869,4.869,0,1,0,28.483,4.5Zm0,7.037a2.157,2.157,0,1,1,2.16-2.155A2.163,2.163,0,0,1,28.483,11.534Z" transform="translate(5.986 5.889)" fill="#fff"/>
        <path id="Path_1204" data-name="Path 1204" d="M58.972,4.5a4.867,4.867,0,0,0-4.665,3.52H18.957a1.362,1.362,0,0,0,0,2.723H54.306A4.871,4.871,0,1,0,58.972,4.5Zm0,7.037a2.157,2.157,0,1,1,2.16-2.155A2.158,2.158,0,0,1,58.972,11.534Z" transform="translate(23.046 5.889)" fill="#fff"/>
        <path id="Path_1205" data-name="Path 1205" d="M57.315,12.513H9.821a4.883,4.883,0,1,0,0,2.725H57.315a1.363,1.363,0,0,0,0-2.725ZM5.154,16.035a2.157,2.157,0,1,1,2.16-2.16A2.161,2.161,0,0,1,5.154,16.035Z" transform="translate(0.355 11.78)" fill="#fff"/>
        <path id="Path_1206" data-name="Path 1206" d="M75.949,12.513H36.68a4.883,4.883,0,1,0,0,2.725H75.949a1.363,1.363,0,0,0,0-2.725ZM32.012,16.035a2.157,2.157,0,1,1,2.157-2.16A2.16,2.16,0,0,1,32.012,16.035Z" transform="translate(35.533 11.78)" fill="#fff"/>
        <path id="Path_1207" data-name="Path 1207" d="M31.22,13.492a4.879,4.879,0,0,0-4.668,3.52H4.345a1.362,1.362,0,0,0,0,2.723H26.553a4.872,4.872,0,1,0,4.668-6.243Zm0,7.037a2.156,2.156,0,1,1,2.157-2.155A2.156,2.156,0,0,1,31.22,20.529Z" transform="translate(3.909 17.67)" fill="#fff"/>
        <path id="Path_1208" data-name="Path 1208" d="M64.846,13.492a4.87,4.87,0,0,0-4.665,3.52H19.2a1.362,1.362,0,1,0,0,2.723H60.18a4.869,4.869,0,1,0,4.665-6.243Zm0,7.037A2.156,2.156,0,1,1,67,18.375,2.158,2.158,0,0,1,64.846,20.529Z" transform="translate(23.367 17.67)" fill="#fff"/>
        <path id="Path_1209" data-name="Path 1209" d="M87.538,17.99a4.868,4.868,0,0,0-4.663,3.52H26.321a1.362,1.362,0,1,0,0,2.723H82.875a4.871,4.871,0,1,0,4.663-6.243Zm0,7.04a2.158,2.158,0,1,1,2.16-2.16A2.162,2.162,0,0,1,87.538,25.03Z" transform="translate(32.686 23.56)" fill="#fff"/>
        <path id="Path_1210" data-name="Path 1210" d="M50.572,17.99a4.877,4.877,0,0,0-4.663,3.52H1.36a1.362,1.362,0,0,0,0,2.723H45.909a4.873,4.873,0,1,0,4.663-6.243Zm0,7.04a2.158,2.158,0,1,1,2.162-2.16A2.161,2.161,0,0,1,50.572,25.03Z" transform="translate(0 23.56)" fill="#fff"/>
        <path id="Path_1211" data-name="Path 1211" d="M59.17,22.488a4.871,4.871,0,0,0-4.663,3.518H6.769a1.363,1.363,0,0,0,0,2.725H54.507a4.872,4.872,0,1,0,4.663-6.243Zm0,7.04a2.158,2.158,0,1,1,2.157-2.16A2.16,2.16,0,0,1,59.17,29.528Z" transform="translate(7.08 29.451)" fill="#fff"/>
        <path id="Path_1212" data-name="Path 1212" d="M58.126,22.488a4.864,4.864,0,0,0-4.661,3.518h-20.6a1.363,1.363,0,0,0,0,2.725h20.6a4.871,4.871,0,1,0,4.663-6.243Zm0,7.04a2.158,2.158,0,1,1,2.157-2.16A2.162,2.162,0,0,1,58.126,29.528Z" transform="translate(41.263 29.451)" fill="#fff"/>
        <path id="Path_1213" data-name="Path 1213" d="M39.852,8.744H52.564a1.362,1.362,0,0,0,0-2.723H39.852a1.362,1.362,0,1,0,0,2.723Z" transform="translate(50.404 7.885)" fill="#fff"/>
        <path id="Path_1214" data-name="Path 1214" d="M41.437,16.377a1.358,1.358,0,0,0,1.36,1.36H63.686a1.36,1.36,0,1,0,0-2.721H42.8A1.358,1.358,0,0,0,41.437,16.377Z" transform="translate(54.268 19.667)" fill="#fff"/>
        <path id="Path_1215" data-name="Path 1215" d="M5.568,22.488a4.881,4.881,0,1,0,4.88,4.88A4.885,4.885,0,0,0,5.568,22.488Zm0,7.04a2.158,2.158,0,1,1,2.157-2.16A2.164,2.164,0,0,1,5.568,29.528Z" transform="translate(0.901 29.451)" fill="#fff"/>
        <path id="Path_1216" data-name="Path 1216" d="M46.977,24.011a1.363,1.363,0,0,0,0,2.725h17.6a1.363,1.363,0,0,0,0-2.725Z" transform="translate(59.738 31.446)" fill="#fff"/>
        <path id="Path_1217" data-name="Path 1217" d="M34.383,26.985A4.868,4.868,0,0,0,29.717,30.5H6.769a1.364,1.364,0,0,0,0,2.728H29.717a4.872,4.872,0,1,0,4.665-6.245Zm0,7.037a2.156,2.156,0,1,1,2.155-2.157A2.162,2.162,0,0,1,34.383,34.022Z" transform="translate(7.08 35.341)" fill="#fff"/>
        <path id="Path_1218" data-name="Path 1218" d="M57.633,26.985A4.874,4.874,0,0,0,52.968,30.5h-30.3a1.364,1.364,0,0,0,0,2.728h30.3a4.872,4.872,0,1,0,4.665-6.245Zm0,7.037a2.156,2.156,0,1,1,2.153-2.157A2.157,2.157,0,0,1,57.633,34.022Z" transform="translate(27.905 35.341)" fill="#fff"/>
        <path id="Path_1219" data-name="Path 1219" d="M89.82,26.985A4.872,4.872,0,0,0,85.155,30.5H41.572a1.364,1.364,0,1,0,0,2.728H85.155a4.872,4.872,0,1,0,4.665-6.245Zm0,7.037a2.156,2.156,0,1,1,2.155-2.157A2.156,2.156,0,0,1,89.82,34.022Z" transform="translate(52.657 35.341)" fill="#fff"/>
        <path id="Path_1220" data-name="Path 1220" d="M58.747,34.37a1.361,1.361,0,0,0-1.365-1.363H25.543a1.362,1.362,0,0,0,0,2.723H57.382A1.362,1.362,0,0,0,58.747,34.37Z" transform="translate(31.671 43.227)" fill="#fff"/>
        <path id="Path_1221" data-name="Path 1221" d="M77.422,35H50.464a4.881,4.881,0,1,0,0,2.723H77.422a1.362,1.362,0,1,0,0-2.723ZM45.8,38.522a2.157,2.157,0,1,1,2.157-2.155A2.158,2.158,0,0,1,45.8,38.522Z" transform="translate(53.588 41.23)" fill="#fff"/>
        <path id="Path_1222" data-name="Path 1222" d="M38.9,38.867a1.357,1.357,0,0,0,1.36,1.36H74.155a1.362,1.362,0,0,0,0-2.723H40.265A1.359,1.359,0,0,0,38.9,38.867Z" transform="translate(50.952 49.117)" fill="#fff"/>
        <path id="Path_1223" data-name="Path 1223" d="M48.543,35.98a4.874,4.874,0,0,0-4.665,3.52H28.2a1.362,1.362,0,0,0,0,2.723H43.877a4.871,4.871,0,1,0,4.665-6.243Zm0,7.04A2.157,2.157,0,1,1,50.7,40.863,2.163,2.163,0,0,1,48.543,43.02Z" transform="translate(35.149 47.121)" fill="#fff"/>
        <path id="Path_1224" data-name="Path 1224" d="M87.173,40.477A4.873,4.873,0,0,0,82.507,44H29.725a1.363,1.363,0,1,0,0,2.725H82.507a4.871,4.871,0,1,0,4.665-6.248Zm0,7.042a2.158,2.158,0,1,1,2.153-2.16A2.159,2.159,0,0,1,87.173,47.519Z" transform="translate(37.141 53.01)" fill="#fff"/>
        <path id="Path_1225" data-name="Path 1225" d="M53.2,44.976a4.863,4.863,0,0,0-4.661,3.518H28.743a1.363,1.363,0,1,0,0,2.725H48.537A4.871,4.871,0,1,0,53.2,44.976Zm0,7.037a2.156,2.156,0,1,1,2.157-2.157A2.159,2.159,0,0,1,53.2,52.013Z" transform="translate(35.855 58.902)" fill="#fff"/>
        <path id="Path_1226" data-name="Path 1226" d="M55.615,52.993H36.38a4.884,4.884,0,1,0,0,2.723H55.615a1.362,1.362,0,0,0,0-2.723Zm-23.9,3.52a2.157,2.157,0,1,1,2.16-2.157A2.16,2.16,0,0,1,31.717,56.513Z" transform="translate(35.149 64.792)" fill="#fff"/>
        <path id="Path_1227" data-name="Path 1227" d="M60.475,52.993H52.31a4.884,4.884,0,1,0,0,2.723h8.165a1.362,1.362,0,1,0,0-2.723Zm-12.832,3.52a2.157,2.157,0,1,1,2.164-2.157A2.16,2.16,0,0,1,47.642,56.513Z" transform="translate(56.003 64.792)" fill="#fff"/>
        <path id="Path_1228" data-name="Path 1228" d="M49.656,53.971A4.866,4.866,0,0,0,45,57.489H31.442a1.362,1.362,0,0,0,0,2.723H45a4.871,4.871,0,1,0,4.661-6.241Zm0,7.037a2.157,2.157,0,1,1,2.157-2.157A2.159,2.159,0,0,1,49.656,61.008Z" transform="translate(39.397 70.683)" fill="#fff"/>
        <path id="Path_1229" data-name="Path 1229" d="M41.776,56.857a1.36,1.36,0,0,0,1.363,1.36H55.978a1.362,1.362,0,0,0,0-2.723H43.139a1.362,1.362,0,0,0-1.363,1.363" transform="translate(54.712 72.677)" fill="#fff"/>
        <path id="Path_1230" data-name="Path 1230" d="M30.622,63.345a1.363,1.363,0,0,0,1.36,1.367H58.543a4.879,4.879,0,1,0,0-2.728H31.982A1.361,1.361,0,0,0,30.622,63.345Zm30.423,0A2.158,2.158,0,1,1,63.2,65.5,2.163,2.163,0,0,1,61.045,63.345Z" transform="translate(40.104 76.573)" fill="#fff"/>
        <path id="Path_1231" data-name="Path 1231" d="M34.112,67.849a4.867,4.867,0,0,0,9.543,1.363H57.047a1.364,1.364,0,0,0,0-2.728H43.655a4.867,4.867,0,0,0-9.543,1.365Zm2.723,0A2.158,2.158,0,1,1,38.992,70,2.159,2.159,0,0,1,36.835,67.849Z" transform="translate(44.675 82.463)" fill="#fff"/>
      </g>
      <g id="Group_354" data-name="Group 354" transform="translate(165.454 101.65)">
        <g id="Group_350" data-name="Group 350">
          <path id="Path_1232" data-name="Path 1232" d="M85.05,51.374A7.823,7.823,0,0,1,83.3,56.809a6.318,6.318,0,0,1-4.95,1.94,6.372,6.372,0,0,1-4.98-1.924,7.88,7.88,0,0,1-1.737-5.469,7.76,7.76,0,0,1,1.748-5.446,6.439,6.439,0,0,1,4.989-1.9,6.314,6.314,0,0,1,4.936,1.929A7.824,7.824,0,0,1,85.05,51.374Zm-10.927,0a6.419,6.419,0,0,0,1.067,4.01,4.341,4.341,0,0,0,6.31.016,6.427,6.427,0,0,0,1.062-4.026,6.461,6.461,0,0,0-1.051-4,3.725,3.725,0,0,0-3.139-1.36,3.8,3.8,0,0,0-3.178,1.36A6.368,6.368,0,0,0,74.123,51.374Z" transform="translate(-71.636 -44.011)" fill="#fff"/>
          <path id="Path_1233" data-name="Path 1233" d="M88.43,48.436a4.177,4.177,0,0,1-1.469,3.439,6.487,6.487,0,0,1-4.183,1.194H81.291v5.356H78.949V44.108h4.123a6.247,6.247,0,0,1,4.021,1.1A3.937,3.937,0,0,1,88.43,48.436ZM81.291,51.1h1.243a4.456,4.456,0,0,0,2.645-.628,2.281,2.281,0,0,0,.843-1.959,2.22,2.22,0,0,0-.755-1.841,3.724,3.724,0,0,0-2.349-.607H81.291Z" transform="translate(-62.059 -43.884)" fill="#fff"/>
          <path id="Path_1234" data-name="Path 1234" d="M92.563,58.425h-8.1V44.108h8.1v1.979H86.8v3.9h5.4v1.959H86.8v4.495h5.758Z" transform="translate(-54.835 -43.884)" fill="#fff"/>
          <path id="Path_1235" data-name="Path 1235" d="M101.412,58.425H98.543L91.5,47.018h-.079l.049.635q.135,1.822.136,3.33v7.442H89.485V44.108h2.841l7.021,11.35H99.4c-.014-.15-.039-.7-.079-1.64s-.058-1.679-.058-2.208v-7.5h2.143Z" transform="translate(-48.26 -43.884)" fill="#fff"/>
        </g>
        <g id="Group_351" data-name="Group 351" transform="translate(64.656 0.363)">
          <path id="Path_1236" data-name="Path 1236" d="M111.275,51.214a7.129,7.129,0,0,1-1.97,5.421,7.9,7.9,0,0,1-5.668,1.875H99.63V44.193h4.428a7.326,7.326,0,0,1,5.317,1.841A6.876,6.876,0,0,1,111.275,51.214Zm-2.469.079q0-5.141-4.809-5.141h-2.026V56.543h1.665Q108.806,56.543,108.806,51.293Z" transform="translate(-99.63 -44.135)" fill="#fff"/>
          <path id="Path_1237" data-name="Path 1237" d="M116.129,58.543l-1.43-3.977h-5.474l-1.4,3.977h-2.467l5.356-14.375h2.545l5.356,14.375Zm-2.046-5.994-1.342-3.9c-.1-.261-.233-.674-.406-1.236s-.291-.972-.356-1.233a22.245,22.245,0,0,1-.774,2.635l-1.293,3.73Z" transform="translate(-92.127 -44.168)" fill="#fff"/>
          <path id="Path_1238" data-name="Path 1238" d="M117.946,58.51h-2.34V46.2H111.4V44.193h10.761V46.2h-4.21Z" transform="translate(-84.221 -44.135)" fill="#fff"/>
          <path id="Path_1239" data-name="Path 1239" d="M127.133,58.543,125.7,54.566h-5.474l-1.4,3.977h-2.467l5.356-14.375h2.545l5.356,14.375Zm-2.049-5.994-1.34-3.9c-.1-.261-.236-.674-.409-1.236s-.291-.972-.356-1.233a22.245,22.245,0,0,1-.774,2.635l-1.293,3.73Z" transform="translate(-77.718 -44.168)" fill="#fff"/>
        </g>
        <g id="Group_352" data-name="Group 352" transform="translate(122.885 0.018)">
          <path id="Path_1240" data-name="Path 1240" d="M134.008,54.655a3.6,3.6,0,0,1-1.381,3,6,6,0,0,1-3.809,1.088,9.085,9.085,0,0,1-3.977-.755V55.77a10.807,10.807,0,0,0,2.081.725,8.875,8.875,0,0,0,2.053.263,3.259,3.259,0,0,0,2.051-.529,1.724,1.724,0,0,0,.661-1.418,1.784,1.784,0,0,0-.607-1.363,9.116,9.116,0,0,0-2.506-1.321,6.628,6.628,0,0,1-2.762-1.811,3.834,3.834,0,0,1-.8-2.448,3.422,3.422,0,0,1,1.275-2.82,5.272,5.272,0,0,1,3.416-1.03,10.048,10.048,0,0,1,4.1.9l-.746,1.91a8.927,8.927,0,0,0-3.407-.8,2.62,2.62,0,0,0-1.723.492,1.63,1.63,0,0,0-.589,1.31,1.838,1.838,0,0,0,.236.954,2.408,2.408,0,0,0,.774.748,13.068,13.068,0,0,0,1.94.931,10.655,10.655,0,0,1,2.31,1.224,3.6,3.6,0,0,1,1.079,1.284A3.884,3.884,0,0,1,134.008,54.655Z" transform="translate(-124.841 -44.019)" fill="#fff"/>
          <path id="Path_1241" data-name="Path 1241" d="M136.675,46.028a3.859,3.859,0,0,0-3.173,1.43,6.113,6.113,0,0,0-1.155,3.945,6.15,6.15,0,0,0,1.111,3.986,3.927,3.927,0,0,0,3.217,1.351,8.494,8.494,0,0,0,1.762-.18q.852-.184,1.774-.467V58.1a10.747,10.747,0,0,1-3.82.637,6.1,6.1,0,0,1-4.827-1.905,7.965,7.965,0,0,1-1.686-5.448,8.8,8.8,0,0,1,.818-3.908,5.847,5.847,0,0,1,2.365-2.566,7.161,7.161,0,0,1,3.633-.892,9.008,9.008,0,0,1,4.056.922l-.843,1.949a12.458,12.458,0,0,0-1.534-.6A5.5,5.5,0,0,0,136.675,46.028Z" transform="translate(-118.244 -44.019)" fill="#fff"/>
          <path id="Path_1242" data-name="Path 1242" d="M135.86,58.425V44.108H138.2V58.425Z" transform="translate(-110.41 -43.902)" fill="#fff"/>
          <path id="Path_1243" data-name="Path 1243" d="M146.784,58.425h-8.1V44.108h8.1v1.979h-5.758v3.9h5.4v1.959h-5.4v4.495h5.758Z" transform="translate(-106.712 -43.902)" fill="#fff"/>
          <path id="Path_1244" data-name="Path 1244" d="M155.631,58.425h-2.869l-7.04-11.407h-.079l.048.635q.139,1.822.136,3.33v7.442H143.7V44.108h2.841l7.021,11.35h.058c-.012-.15-.039-.7-.079-1.64s-.058-1.679-.058-2.208v-7.5h2.143Z" transform="translate(-100.137 -43.902)" fill="#fff"/>
          <path id="Path_1245" data-name="Path 1245" d="M157.17,46.028A3.853,3.853,0,0,0,154,47.458a6.1,6.1,0,0,0-1.155,3.945,6.15,6.15,0,0,0,1.111,3.986,3.924,3.924,0,0,0,3.217,1.351,8.51,8.51,0,0,0,1.762-.18q.852-.184,1.771-.467V58.1a10.725,10.725,0,0,1-3.818.637,6.107,6.107,0,0,1-4.829-1.905,7.965,7.965,0,0,1-1.684-5.448,8.8,8.8,0,0,1,.818-3.908,5.833,5.833,0,0,1,2.365-2.566,7.161,7.161,0,0,1,3.633-.892,9,9,0,0,1,4.053.922L160.4,46.89a12.458,12.458,0,0,0-1.534-.6A5.506,5.506,0,0,0,157.17,46.028Z" transform="translate(-91.403 -44.019)" fill="#fff"/>
          <path id="Path_1246" data-name="Path 1246" d="M164.454,58.425h-8.1V44.108h8.1v1.979H158.7v3.9h5.4v1.959h-5.4v4.495h5.758Z" transform="translate(-83.568 -43.902)" fill="#fff"/>
        </g>
        <g id="Group_353" data-name="Group 353" transform="translate(213.416)">
          <path id="Path_1247" data-name="Path 1247" d="M173.517,48.436a4.177,4.177,0,0,1-1.469,3.439,6.48,6.48,0,0,1-4.18,1.194h-1.49v5.356h-2.34V44.108h4.123a6.24,6.24,0,0,1,4.019,1.1A3.937,3.937,0,0,1,173.517,48.436ZM166.378,51.1h1.245a4.447,4.447,0,0,0,2.642-.628,2.281,2.281,0,0,0,.843-1.959,2.225,2.225,0,0,0-.753-1.841A3.731,3.731,0,0,0,168,46.067h-1.626Z" transform="translate(-164.038 -43.884)" fill="#fff"/>
          <path id="Path_1248" data-name="Path 1248" d="M169.554,58.425V44.108h2.34v12.31h6.063v2.007Z" transform="translate(-156.814 -43.884)" fill="#fff"/>
          <path id="Path_1249" data-name="Path 1249" d="M184.387,58.458l-1.43-3.975h-5.474l-1.4,3.975h-2.469l5.356-14.375h2.548l5.356,14.375Zm-2.046-5.994L181,48.568q-.145-.391-.406-1.233c-.173-.564-.291-.975-.358-1.236a21.815,21.815,0,0,1-.774,2.635l-1.291,3.73Z" transform="translate(-151.496 -43.917)" fill="#fff"/>
          <path id="Path_1250" data-name="Path 1250" d="M186.2,58.425h-2.34V46.117h-4.21V44.108h10.763v2.009H186.2Z" transform="translate(-143.588 -43.884)" fill="#fff"/>
          <path id="Path_1251" data-name="Path 1251" d="M187.757,58.425h-2.321V44.108h8.079v1.979h-5.758v4.474h5.4V52.55h-5.4Z" transform="translate(-136.014 -43.884)" fill="#fff"/>
          <path id="Path_1252" data-name="Path 1252" d="M203.34,51.374a7.823,7.823,0,0,1-1.748,5.435,7.345,7.345,0,0,1-9.929.016,7.88,7.88,0,0,1-1.737-5.469,7.76,7.76,0,0,1,1.748-5.446,6.439,6.439,0,0,1,4.989-1.9A6.314,6.314,0,0,1,201.6,45.94,7.824,7.824,0,0,1,203.34,51.374Zm-10.927,0a6.419,6.419,0,0,0,1.067,4.01,4.341,4.341,0,0,0,6.31.016,6.428,6.428,0,0,0,1.062-4.026,6.461,6.461,0,0,0-1.051-4,3.725,3.725,0,0,0-3.139-1.36,3.8,3.8,0,0,0-3.178,1.36A6.369,6.369,0,0,0,192.414,51.374Z" transform="translate(-130.134 -44.011)" fill="#fff"/>
          <path id="Path_1253" data-name="Path 1253" d="M199.581,52.707v5.719h-2.342V44.108h4.047a6.637,6.637,0,0,1,4.1,1.039,3.729,3.729,0,0,1,1.333,3.134,3.92,3.92,0,0,1-2.781,3.809l4.044,6.335h-2.665l-3.427-5.719Zm0-1.94h1.626a3.716,3.716,0,0,0,2.37-.605,2.209,2.209,0,0,0,.734-1.8,1.936,1.936,0,0,0-.794-1.741,4.341,4.341,0,0,0-2.388-.529h-1.547Z" transform="translate(-120.557 -43.884)" fill="#fff"/>
          <path id="Path_1254" data-name="Path 1254" d="M209.151,58.425,205,46.468h-.079q.166,2.664.166,5v6.961h-2.125V44.108h3.3L210.238,55.5h.06l4.093-11.389h3.31V58.425h-2.252V51.346q0-1.067.053-2.781c.035-1.143.067-1.836.092-2.076h-.079l-4.3,11.936Z" transform="translate(-113.06 -43.884)" fill="#fff"/>
        </g>
      </g>
    </g>
  </g>
</svg>
