<svg id="Header_image" data-name="Header image" xmlns="http://www.w3.org/2000/svg" xmlns:xlink="http://www.w3.org/1999/xlink" width="2723.236" height="747.5" viewBox="0 0 2723.236 747.5">
  <defs>
    <clipPath id="clip-path">
      <rect id="Rectangle_133" data-name="Rectangle 133" width="709.754" height="747.5" fill="rgba(255,255,255,0.31)"/>
    </clipPath>
  </defs>
  <g id="Group_459" data-name="Group 459" transform="translate(0 0)">
    <g id="Group_458" data-name="Group 458" transform="translate(0 0)" clip-path="url(#clip-path)">
      <path id="Path_1596" data-name="Path 1596" d="M165.959,46.5H48.328a6.563,6.563,0,0,0,0,13.127H165.959a6.563,6.563,0,0,0,0-13.127" transform="translate(422.961 470.778)" fill="rgba(255,255,255,0.31)"/>
      <path id="Path_1597" data-name="Path 1597" d="M228.313,0a23.492,23.492,0,0,0-22.472,16.954H16.158a6.552,6.552,0,1,0,0,13.1H205.842A23.472,23.472,0,1,0,228.313,0m0,33.9a10.39,10.39,0,1,1,10.39-10.39,10.4,10.4,0,0,1-10.39,10.39" transform="translate(97.023 -0.001)" fill="rgba(255,255,255,0.31)"/>
      <path id="Path_1598" data-name="Path 1598" d="M119.753,4.5a23.469,23.469,0,0,0-22.46,16.954H11.145a6.558,6.558,0,1,0,0,13.116H97.293A23.459,23.459,0,1,0,119.753,4.5m0,33.9a10.39,10.39,0,1,1,10.4-10.379,10.409,10.409,0,0,1-10.4,10.379" transform="translate(46.269 45.529)" fill="rgba(255,255,255,0.31)"/>
      <path id="Path_1599" data-name="Path 1599" d="M216.881,4.5A23.442,23.442,0,0,0,194.41,21.451H24.16a6.558,6.558,0,1,0,0,13.116H194.41A23.463,23.463,0,1,0,216.881,4.5m0,33.9a10.39,10.39,0,1,1,10.4-10.379,10.393,10.393,0,0,1-10.4,10.379" transform="translate(178.161 45.529)" fill="rgba(255,255,255,0.31)"/>
      <path id="Path_1600" data-name="Path 1600" d="M275.014,25.927H46.261a23.529,23.529,0,1,0,0,13.127H275.014a6.563,6.563,0,0,0,0-13.127M23.778,42.892a10.39,10.39,0,1,1,10.4-10.39,10.39,10.39,0,0,1-10.4,10.39" transform="translate(2.754 91.079)" fill="rgba(255,255,255,0.31)"/>
      <path id="Path_1601" data-name="Path 1601" d="M262.26,25.927H73.121a23.529,23.529,0,1,0,0,13.127H262.26a6.563,6.563,0,0,0,0-13.127M50.638,42.892A10.39,10.39,0,1,1,61.028,32.5a10.4,10.4,0,0,1-10.39,10.39" transform="translate(274.698 91.079)" fill="rgba(255,255,255,0.31)"/>
      <path id="Path_1602" data-name="Path 1602" d="M138.982,13.492A23.485,23.485,0,0,0,116.5,30.446H9.548a6.558,6.558,0,1,0,0,13.116H116.5a23.468,23.468,0,1,0,22.483-30.07m0,33.9a10.385,10.385,0,1,1,10.39-10.379,10.393,10.393,0,0,1-10.39,10.379" transform="translate(30.222 136.599)" fill="rgba(255,255,255,0.31)"/>
      <path id="Path_1603" data-name="Path 1603" d="M244.237,13.492a23.442,23.442,0,0,0-22.471,16.954H24.417a6.558,6.558,0,1,0,0,13.116H221.765a23.459,23.459,0,1,0,22.471-30.07m0,33.9a10.385,10.385,0,1,1,10.39-10.379,10.4,10.4,0,0,1-10.39,10.379" transform="translate(180.641 136.599)" fill="rgba(255,255,255,0.31)"/>
      <path id="Path_1604" data-name="Path 1604" d="M326.376,17.991a23.472,23.472,0,0,0-22.46,16.943H31.521a6.558,6.558,0,1,0,0,13.116H303.916a23.462,23.462,0,1,0,22.46-30.058m0,33.9a10.4,10.4,0,1,1,10.4-10.4,10.412,10.412,0,0,1-10.4,10.4" transform="translate(252.687 182.149)" fill="rgba(255,255,255,0.31)"/>
      <path id="Path_1605" data-name="Path 1605" d="M243.582,17.991a23.506,23.506,0,0,0-22.471,16.943H6.563a6.558,6.558,0,1,0,0,13.116H221.111a23.476,23.476,0,1,0,22.471-30.058m0,33.9a10.4,10.4,0,1,1,10.4-10.4,10.419,10.419,0,0,1-10.4,10.4" transform="translate(0 182.149)" fill="rgba(255,255,255,0.31)"/>
      <path id="Path_1606" data-name="Path 1606" d="M264.372,22.488A23.486,23.486,0,0,0,241.9,39.431H11.98a6.563,6.563,0,1,0,0,13.127H241.9a23.468,23.468,0,1,0,22.471-30.07m0,33.907a10.4,10.4,0,1,1,10.39-10.4,10.407,10.407,0,0,1-10.39,10.4" transform="translate(54.723 227.679)" fill="rgba(255,255,255,0.31)"/>
      <path id="Path_1607" data-name="Path 1607" d="M159.718,22.488a23.432,23.432,0,0,0-22.46,16.943H38.06a6.563,6.563,0,0,0,0,13.127h99.186a23.463,23.463,0,1,0,22.471-30.07m0,33.907a10.4,10.4,0,1,1,10.379-10.4,10.409,10.409,0,0,1-10.379,10.4" transform="translate(319.003 227.679)" fill="rgba(255,255,255,0.31)"/>
      <path id="Path_1608" data-name="Path 1608" d="M45.05,19.137h61.24a6.558,6.558,0,0,0,0-13.116H45.05a6.558,6.558,0,1,0,0,13.116" transform="translate(389.662 60.958)" fill="rgba(255,255,255,0.31)"/>
      <path id="Path_1609" data-name="Path 1609" d="M41.437,21.579a6.557,6.557,0,0,0,6.552,6.552H148.61a6.558,6.558,0,0,0,0-13.116H47.989a6.552,6.552,0,0,0-6.552,6.563" transform="translate(419.529 152.028)" fill="rgba(255,255,255,0.31)"/>
      <path id="Path_1610" data-name="Path 1610" d="M24.194,22.488A23.512,23.512,0,1,0,47.7,45.994,23.534,23.534,0,0,0,24.194,22.488m0,33.907a10.4,10.4,0,1,1,10.39-10.4,10.414,10.414,0,0,1-10.39,10.4" transform="translate(6.966 227.679)" fill="rgba(255,255,255,0.31)"/>
      <path id="Path_1611" data-name="Path 1611" d="M52.166,24.011a6.563,6.563,0,0,0,0,13.127h84.769a6.563,6.563,0,0,0,0-13.127Z" transform="translate(461.819 243.098)" fill="rgba(255,255,255,0.31)"/>
      <path id="Path_1612" data-name="Path 1612" d="M144.974,26.985A23.445,23.445,0,0,0,122.5,43.928H11.969a6.563,6.563,0,0,0,0,13.127H122.5a23.463,23.463,0,1,0,22.471-30.07m0,33.9a10.385,10.385,0,1,1,10.39-10.39,10.421,10.421,0,0,1-10.39,10.39" transform="translate(54.733 273.209)" fill="rgba(255,255,255,0.31)"/>
      <path id="Path_1613" data-name="Path 1613" d="M196.263,26.985a23.486,23.486,0,0,0-22.471,16.943H27.86a6.563,6.563,0,0,0,0,13.127H173.792a23.463,23.463,0,1,0,22.471-30.07m0,33.9a10.385,10.385,0,1,1,10.368-10.39,10.4,10.4,0,0,1-10.368,10.39" transform="translate(215.733 273.209)" fill="rgba(255,255,255,0.31)"/>
      <path id="Path_1614" data-name="Path 1614" d="M279.162,26.985A23.489,23.489,0,0,0,256.68,43.928H46.771a6.563,6.563,0,1,0,0,13.127H256.68a23.463,23.463,0,1,0,22.483-30.07m0,33.9a10.385,10.385,0,1,1,10.379-10.39,10.386,10.386,0,0,1-10.379,10.39" transform="translate(407.086 273.209)" fill="rgba(255,255,255,0.31)"/>
      <path id="Path_1615" data-name="Path 1615" d="M190.661,39.57a6.554,6.554,0,0,0-6.563-6.563H30.735a6.558,6.558,0,0,0,0,13.116H184.1a6.559,6.559,0,0,0,6.563-6.552" transform="translate(244.841 334.178)" fill="rgba(255,255,255,0.31)"/>
      <path id="Path_1616" data-name="Path 1616" d="M216.751,48.447H86.895a23.512,23.512,0,1,0,0,13.116H216.751a6.558,6.558,0,1,0,0-13.116M64.456,65.389A10.39,10.39,0,1,1,74.836,55a10.407,10.407,0,0,1-10.379,10.39" transform="translate(414.264 318.738)" fill="rgba(255,255,255,0.31)"/>
      <path id="Path_1617" data-name="Path 1617" d="M38.9,44.067a6.542,6.542,0,0,0,6.552,6.552h163.23a6.558,6.558,0,1,0,0-13.116H45.457A6.552,6.552,0,0,0,38.9,44.067" transform="translate(393.894 379.708)" fill="rgba(255,255,255,0.31)"/>
      <path id="Path_1618" data-name="Path 1618" d="M131.376,35.981A23.482,23.482,0,0,0,108.9,52.935H33.391a6.552,6.552,0,1,0,0,13.1H108.9a23.462,23.462,0,1,0,22.472-30.058m0,33.9a10.39,10.39,0,1,1,10.39-10.39,10.412,10.412,0,0,1-10.39,10.39" transform="translate(271.732 364.289)" fill="rgba(255,255,255,0.31)"/>
      <path id="Path_1619" data-name="Path 1619" d="M311.634,40.477a23.475,23.475,0,0,0-22.471,16.954H34.935a6.563,6.563,0,1,0,0,13.127H289.163a23.46,23.46,0,1,0,22.471-30.081m0,33.919A10.4,10.4,0,1,1,322,63.994a10.4,10.4,0,0,1-10.368,10.4" transform="translate(287.131 409.808)" fill="rgba(255,255,255,0.31)"/>
      <path id="Path_1620" data-name="Path 1620" d="M151.739,44.976A23.428,23.428,0,0,0,129.29,61.907H33.941a6.569,6.569,0,0,0,0,13.138H129.29a23.463,23.463,0,1,0,22.449-30.07m0,33.9a10.39,10.39,0,1,1,10.39-10.4,10.4,10.4,0,0,1-10.39,10.4" transform="translate(277.189 455.359)" fill="rgba(255,255,255,0.31)"/>
      <path id="Path_1621" data-name="Path 1621" d="M165.439,66.427H72.805a23.523,23.523,0,1,0,0,13.116h92.634a6.558,6.558,0,0,0,0-13.116M50.334,83.38a10.39,10.39,0,1,1,10.4-10.39,10.4,10.4,0,0,1-10.4,10.39" transform="translate(271.732 500.888)" fill="rgba(255,255,255,0.31)"/>
      <path id="Path_1622" data-name="Path 1622" d="M128.076,66.427H88.751a23.523,23.523,0,1,0,0,13.116h39.325a6.558,6.558,0,1,0,0-13.116M66.268,83.38A10.39,10.39,0,1,1,76.681,72.99,10.39,10.39,0,0,1,66.268,83.38" transform="translate(432.944 500.888)" fill="rgba(255,255,255,0.31)"/>
      <path id="Path_1623" data-name="Path 1623" d="M124.372,53.971a23.438,23.438,0,0,0-22.449,16.943H36.633a6.558,6.558,0,0,0,0,13.116h65.29a23.462,23.462,0,1,0,22.449-30.058m0,33.9a10.39,10.39,0,1,1,10.39-10.39,10.4,10.4,0,0,1-10.39,10.39" transform="translate(304.555 546.428)" fill="rgba(255,255,255,0.31)"/>
      <path id="Path_1624" data-name="Path 1624" d="M41.776,62.057a6.552,6.552,0,0,0,6.563,6.552h61.841a6.558,6.558,0,0,0,0-13.116H48.339a6.561,6.561,0,0,0-6.563,6.563" transform="translate(422.961 561.848)" fill="rgba(255,255,255,0.31)"/>
      <path id="Path_1625" data-name="Path 1625" d="M30.622,81.953a6.557,6.557,0,0,0,6.552,6.586H165.106a23.5,23.5,0,1,0,0-13.138H37.174a6.549,6.549,0,0,0-6.552,6.552m146.532,0a10.4,10.4,0,1,1,10.4,10.4,10.409,10.409,0,0,1-10.4-10.4" transform="translate(310.033 591.969)" fill="rgba(255,255,255,0.31)"/>
      <path id="Path_1626" data-name="Path 1626" d="M34.112,86.473a23.433,23.433,0,0,0,45.955,6.563h64.511a6.563,6.563,0,0,0,0-13.127H80.067a23.437,23.437,0,0,0-45.955,6.563m13.116,0a10.4,10.4,0,1,1,10.39,10.39,10.4,10.4,0,0,1-10.39-10.39" transform="translate(345.367 637.509)" fill="rgba(255,255,255,0.31)"/>
    </g>
  </g>
  <g id="Group_460" data-name="Group 460" transform="translate(2723.236 747.5) rotate(180)">
    <g id="Group_458-2" data-name="Group 458" transform="translate(0 0)" clip-path="url(#clip-path)">
      <path id="Path_1596-2" data-name="Path 1596" d="M165.959,46.5H48.328a6.563,6.563,0,0,0,0,13.127H165.959a6.563,6.563,0,0,0,0-13.127" transform="translate(422.961 470.778)" fill="rgba(255,255,255,0.31)"/>
      <path id="Path_1597-2" data-name="Path 1597" d="M228.313,0a23.492,23.492,0,0,0-22.472,16.954H16.158a6.552,6.552,0,1,0,0,13.1H205.842A23.472,23.472,0,1,0,228.313,0m0,33.9a10.39,10.39,0,1,1,10.39-10.39,10.4,10.4,0,0,1-10.39,10.39" transform="translate(97.023 -0.001)" fill="rgba(255,255,255,0.31)"/>
      <path id="Path_1598-2" data-name="Path 1598" d="M119.753,4.5a23.469,23.469,0,0,0-22.46,16.954H11.145a6.558,6.558,0,1,0,0,13.116H97.293A23.459,23.459,0,1,0,119.753,4.5m0,33.9a10.39,10.39,0,1,1,10.4-10.379,10.409,10.409,0,0,1-10.4,10.379" transform="translate(46.269 45.529)" fill="rgba(255,255,255,0.31)"/>
      <path id="Path_1599-2" data-name="Path 1599" d="M216.881,4.5A23.442,23.442,0,0,0,194.41,21.451H24.16a6.558,6.558,0,1,0,0,13.116H194.41A23.463,23.463,0,1,0,216.881,4.5m0,33.9a10.39,10.39,0,1,1,10.4-10.379,10.393,10.393,0,0,1-10.4,10.379" transform="translate(178.161 45.529)" fill="rgba(255,255,255,0.31)"/>
      <path id="Path_1600-2" data-name="Path 1600" d="M275.014,25.927H46.261a23.529,23.529,0,1,0,0,13.127H275.014a6.563,6.563,0,0,0,0-13.127M23.778,42.892a10.39,10.39,0,1,1,10.4-10.39,10.39,10.39,0,0,1-10.4,10.39" transform="translate(2.754 91.079)" fill="rgba(255,255,255,0.31)"/>
      <path id="Path_1601-2" data-name="Path 1601" d="M262.26,25.927H73.121a23.529,23.529,0,1,0,0,13.127H262.26a6.563,6.563,0,0,0,0-13.127M50.638,42.892A10.39,10.39,0,1,1,61.028,32.5a10.4,10.4,0,0,1-10.39,10.39" transform="translate(274.698 91.079)" fill="rgba(255,255,255,0.31)"/>
      <path id="Path_1602-2" data-name="Path 1602" d="M138.982,13.492A23.485,23.485,0,0,0,116.5,30.446H9.548a6.558,6.558,0,1,0,0,13.116H116.5a23.468,23.468,0,1,0,22.483-30.07m0,33.9a10.385,10.385,0,1,1,10.39-10.379,10.393,10.393,0,0,1-10.39,10.379" transform="translate(30.222 136.599)" fill="rgba(255,255,255,0.31)"/>
      <path id="Path_1603-2" data-name="Path 1603" d="M244.237,13.492a23.442,23.442,0,0,0-22.471,16.954H24.417a6.558,6.558,0,1,0,0,13.116H221.765a23.459,23.459,0,1,0,22.471-30.07m0,33.9a10.385,10.385,0,1,1,10.39-10.379,10.4,10.4,0,0,1-10.39,10.379" transform="translate(180.641 136.599)" fill="rgba(255,255,255,0.31)"/>
      <path id="Path_1604-2" data-name="Path 1604" d="M326.376,17.991a23.472,23.472,0,0,0-22.46,16.943H31.521a6.558,6.558,0,1,0,0,13.116H303.916a23.462,23.462,0,1,0,22.46-30.058m0,33.9a10.4,10.4,0,1,1,10.4-10.4,10.412,10.412,0,0,1-10.4,10.4" transform="translate(252.687 182.149)" fill="rgba(255,255,255,0.31)"/>
      <path id="Path_1605-2" data-name="Path 1605" d="M243.582,17.991a23.506,23.506,0,0,0-22.471,16.943H6.563a6.558,6.558,0,1,0,0,13.116H221.111a23.476,23.476,0,1,0,22.471-30.058m0,33.9a10.4,10.4,0,1,1,10.4-10.4,10.419,10.419,0,0,1-10.4,10.4" transform="translate(0 182.149)" fill="rgba(255,255,255,0.31)"/>
      <path id="Path_1606-2" data-name="Path 1606" d="M264.372,22.488A23.486,23.486,0,0,0,241.9,39.431H11.98a6.563,6.563,0,1,0,0,13.127H241.9a23.468,23.468,0,1,0,22.471-30.07m0,33.907a10.4,10.4,0,1,1,10.39-10.4,10.407,10.407,0,0,1-10.39,10.4" transform="translate(54.723 227.679)" fill="rgba(255,255,255,0.31)"/>
      <path id="Path_1607-2" data-name="Path 1607" d="M159.718,22.488a23.432,23.432,0,0,0-22.46,16.943H38.06a6.563,6.563,0,0,0,0,13.127h99.186a23.463,23.463,0,1,0,22.471-30.07m0,33.907a10.4,10.4,0,1,1,10.379-10.4,10.409,10.409,0,0,1-10.379,10.4" transform="translate(319.003 227.679)" fill="rgba(255,255,255,0.31)"/>
      <path id="Path_1608-2" data-name="Path 1608" d="M45.05,19.137h61.24a6.558,6.558,0,0,0,0-13.116H45.05a6.558,6.558,0,1,0,0,13.116" transform="translate(389.662 60.958)" fill="rgba(255,255,255,0.31)"/>
      <path id="Path_1609-2" data-name="Path 1609" d="M41.437,21.579a6.557,6.557,0,0,0,6.552,6.552H148.61a6.558,6.558,0,0,0,0-13.116H47.989a6.552,6.552,0,0,0-6.552,6.563" transform="translate(419.529 152.028)" fill="rgba(255,255,255,0.31)"/>
      <path id="Path_1610-2" data-name="Path 1610" d="M24.194,22.488A23.512,23.512,0,1,0,47.7,45.994,23.534,23.534,0,0,0,24.194,22.488m0,33.907a10.4,10.4,0,1,1,10.39-10.4,10.414,10.414,0,0,1-10.39,10.4" transform="translate(6.966 227.679)" fill="rgba(255,255,255,0.31)"/>
      <path id="Path_1611-2" data-name="Path 1611" d="M52.166,24.011a6.563,6.563,0,0,0,0,13.127h84.769a6.563,6.563,0,0,0,0-13.127Z" transform="translate(461.819 243.098)" fill="rgba(255,255,255,0.31)"/>
      <path id="Path_1612-2" data-name="Path 1612" d="M144.974,26.985A23.445,23.445,0,0,0,122.5,43.928H11.969a6.563,6.563,0,0,0,0,13.127H122.5a23.463,23.463,0,1,0,22.471-30.07m0,33.9a10.385,10.385,0,1,1,10.39-10.39,10.421,10.421,0,0,1-10.39,10.39" transform="translate(54.733 273.209)" fill="rgba(255,255,255,0.31)"/>
      <path id="Path_1613-2" data-name="Path 1613" d="M196.263,26.985a23.486,23.486,0,0,0-22.471,16.943H27.86a6.563,6.563,0,0,0,0,13.127H173.792a23.463,23.463,0,1,0,22.471-30.07m0,33.9a10.385,10.385,0,1,1,10.368-10.39,10.4,10.4,0,0,1-10.368,10.39" transform="translate(215.733 273.209)" fill="rgba(255,255,255,0.31)"/>
      <path id="Path_1614-2" data-name="Path 1614" d="M279.162,26.985A23.489,23.489,0,0,0,256.68,43.928H46.771a6.563,6.563,0,1,0,0,13.127H256.68a23.463,23.463,0,1,0,22.483-30.07m0,33.9a10.385,10.385,0,1,1,10.379-10.39,10.386,10.386,0,0,1-10.379,10.39" transform="translate(407.086 273.209)" fill="rgba(255,255,255,0.31)"/>
      <path id="Path_1615-2" data-name="Path 1615" d="M190.661,39.57a6.554,6.554,0,0,0-6.563-6.563H30.735a6.558,6.558,0,0,0,0,13.116H184.1a6.559,6.559,0,0,0,6.563-6.552" transform="translate(244.841 334.178)" fill="rgba(255,255,255,0.31)"/>
      <path id="Path_1616-2" data-name="Path 1616" d="M216.751,48.447H86.895a23.512,23.512,0,1,0,0,13.116H216.751a6.558,6.558,0,1,0,0-13.116M64.456,65.389A10.39,10.39,0,1,1,74.836,55a10.407,10.407,0,0,1-10.379,10.39" transform="translate(414.264 318.738)" fill="rgba(255,255,255,0.31)"/>
      <path id="Path_1617-2" data-name="Path 1617" d="M38.9,44.067a6.542,6.542,0,0,0,6.552,6.552h163.23a6.558,6.558,0,1,0,0-13.116H45.457A6.552,6.552,0,0,0,38.9,44.067" transform="translate(393.894 379.708)" fill="rgba(255,255,255,0.31)"/>
      <path id="Path_1618-2" data-name="Path 1618" d="M131.376,35.981A23.482,23.482,0,0,0,108.9,52.935H33.391a6.552,6.552,0,1,0,0,13.1H108.9a23.462,23.462,0,1,0,22.472-30.058m0,33.9a10.39,10.39,0,1,1,10.39-10.39,10.412,10.412,0,0,1-10.39,10.39" transform="translate(271.732 364.289)" fill="rgba(255,255,255,0.31)"/>
      <path id="Path_1619-2" data-name="Path 1619" d="M311.634,40.477a23.475,23.475,0,0,0-22.471,16.954H34.935a6.563,6.563,0,1,0,0,13.127H289.163a23.46,23.46,0,1,0,22.471-30.081m0,33.919A10.4,10.4,0,1,1,322,63.994a10.4,10.4,0,0,1-10.368,10.4" transform="translate(287.131 409.808)" fill="rgba(255,255,255,0.31)"/>
      <path id="Path_1620-2" data-name="Path 1620" d="M151.739,44.976A23.428,23.428,0,0,0,129.29,61.907H33.941a6.569,6.569,0,0,0,0,13.138H129.29a23.463,23.463,0,1,0,22.449-30.07m0,33.9a10.39,10.39,0,1,1,10.39-10.4,10.4,10.4,0,0,1-10.39,10.4" transform="translate(277.189 455.359)" fill="rgba(255,255,255,0.31)"/>
      <path id="Path_1621-2" data-name="Path 1621" d="M165.439,66.427H72.805a23.523,23.523,0,1,0,0,13.116h92.634a6.558,6.558,0,0,0,0-13.116M50.334,83.38a10.39,10.39,0,1,1,10.4-10.39,10.4,10.4,0,0,1-10.4,10.39" transform="translate(271.732 500.888)" fill="rgba(255,255,255,0.31)"/>
      <path id="Path_1622-2" data-name="Path 1622" d="M128.076,66.427H88.751a23.523,23.523,0,1,0,0,13.116h39.325a6.558,6.558,0,1,0,0-13.116M66.268,83.38A10.39,10.39,0,1,1,76.681,72.99,10.39,10.39,0,0,1,66.268,83.38" transform="translate(432.944 500.888)" fill="rgba(255,255,255,0.31)"/>
      <path id="Path_1623-2" data-name="Path 1623" d="M124.372,53.971a23.438,23.438,0,0,0-22.449,16.943H36.633a6.558,6.558,0,0,0,0,13.116h65.29a23.462,23.462,0,1,0,22.449-30.058m0,33.9a10.39,10.39,0,1,1,10.39-10.39,10.4,10.4,0,0,1-10.39,10.39" transform="translate(304.555 546.428)" fill="rgba(255,255,255,0.31)"/>
      <path id="Path_1624-2" data-name="Path 1624" d="M41.776,62.057a6.552,6.552,0,0,0,6.563,6.552h61.841a6.558,6.558,0,0,0,0-13.116H48.339a6.561,6.561,0,0,0-6.563,6.563" transform="translate(422.961 561.848)" fill="rgba(255,255,255,0.31)"/>
      <path id="Path_1625-2" data-name="Path 1625" d="M30.622,81.953a6.557,6.557,0,0,0,6.552,6.586H165.106a23.5,23.5,0,1,0,0-13.138H37.174a6.549,6.549,0,0,0-6.552,6.552m146.532,0a10.4,10.4,0,1,1,10.4,10.4,10.409,10.409,0,0,1-10.4-10.4" transform="translate(310.033 591.969)" fill="rgba(255,255,255,0.31)"/>
      <path id="Path_1626-2" data-name="Path 1626" d="M34.112,86.473a23.433,23.433,0,0,0,45.955,6.563h64.511a6.563,6.563,0,0,0,0-13.127H80.067a23.437,23.437,0,0,0-45.955,6.563m13.116,0a10.4,10.4,0,1,1,10.39,10.39,10.4,10.4,0,0,1-10.39-10.39" transform="translate(345.367 637.509)" fill="rgba(255,255,255,0.31)"/>
    </g>
  </g>
</svg>
